<svg width="18" height="18" viewBox="0 0 18 18" fill="none" xmlns="http://www.w3.org/2000/svg">
<g clip-path="url(#clip0_71_75)">
<path d="M0.760745 10.3597L1.94041 10.3671C2.1168 11.2748 2.46592 12.1568 2.99512 12.9579L2.15723 13.7885C1.85588 14.0861 1.85588 14.5675 2.14988 14.8689L3.05392 15.784C3.35159 16.0853 3.83301 16.0853 4.13435 15.7913L4.97224 14.9608C5.76603 15.4973 6.64435 15.8611 7.55206 16.0449L7.54471 17.2245C7.54104 17.6472 7.88281 17.9889 8.30543 17.9926L9.59166 18C10.0143 18.0036 10.356 17.6619 10.3597 17.2392L10.3671 16.0596C11.2748 15.8832 12.1568 15.5341 12.9579 15.0049L13.7885 15.8428C14.0861 16.1441 14.5675 16.1441 14.8689 15.8501L15.784 14.9461C16.0853 14.6484 16.0853 14.167 15.7913 13.8656L14.9608 13.0277C15.4973 12.234 15.8611 11.3556 16.0449 10.4479L17.2245 10.4553C17.6472 10.4589 17.9889 10.1172 17.9926 9.69456L18 8.40832C18.0036 7.9857 17.6619 7.64393 17.2392 7.64026L16.0596 7.63291C15.8832 6.7252 15.5341 5.84321 15.0049 5.04207L15.8428 4.21153C16.1441 3.91386 16.1441 3.43244 15.8501 3.13109L14.9461 2.21603C14.6484 1.91468 14.167 1.91468 13.8656 2.20868L13.0277 3.03922C12.234 2.50267 11.3556 2.13885 10.4479 1.9551L10.4553 0.775445C10.4589 0.352825 10.1172 0.0110542 9.69456 0.00737927L8.40832 2.93614e-05C7.9857 -0.00364559 7.64393 0.338125 7.64026 0.760745L7.62923 1.94041C6.71785 2.1168 5.83586 2.46592 5.03839 2.99512L4.20785 2.15723C3.91018 1.85588 3.42876 1.85588 3.12742 2.14988L2.21603 3.05392C1.91468 3.35159 1.91468 3.83301 2.20868 4.13435L3.03922 4.97224C2.50267 5.76603 2.13885 6.64435 1.9551 7.55206L0.775445 7.54471C0.352825 7.54104 0.0110542 7.88281 0.00737927 8.30543L2.93614e-05 9.59166C-0.00364559 10.0106 0.338125 10.356 0.760745 10.3597ZM6.58922 6.5635C7.93426 5.23316 10.0988 5.24419 11.4291 6.58922C12.7595 7.93426 12.7484 10.0988 11.4034 11.4291C10.0584 12.7595 7.89383 12.7484 6.5635 11.4034C5.23316 10.0584 5.24419 7.89383 6.58922 6.5635Z" fill="black"/>
</g>
<defs>
<clipPath id="clip0_71_75">
<rect width="18" height="18" fill="white"/>
</clipPath>
</defs>
</svg>
