<svg width="26" height="26" viewBox="0 0 26 26" fill="none" xmlns="http://www.w3.org/2000/svg">
<path d="M11.5158 5.94744C12.5916 5.696 13.7137 5.72291 14.7762 6.02561C15.8386 6.32831 16.8064 6.89683 17.5882 7.67747C18.3699 8.45812 18.9398 9.42513 19.2439 10.4872C19.5481 11.5493 19.5766 12.6713 19.3266 13.7474C19.2928 13.8862 19.2867 14.0302 19.3087 14.1713C19.3307 14.3124 19.3804 14.4478 19.4549 14.5696C19.5294 14.6914 19.6272 14.7973 19.7428 14.8812C19.8584 14.965 19.9894 15.0252 20.1283 15.0583C20.211 15.0689 20.2947 15.0689 20.3775 15.0583C20.6249 15.0655 20.8674 14.9877 21.0645 14.8379C21.2616 14.6881 21.4015 14.4753 21.4608 14.2349C21.7983 12.799 21.7637 11.3007 21.3602 9.88185C20.9568 8.46302 20.1979 7.17064 19.1554 6.12706C18.113 5.08349 16.8214 4.32326 15.4029 3.91837C13.9845 3.51347 12.4863 3.4773 11.05 3.81328C10.7626 3.87936 10.5133 4.05687 10.3569 4.30677C10.2005 4.55666 10.1497 4.85846 10.2158 5.14578C10.2819 5.4331 10.4594 5.68239 10.7093 5.83883C10.9592 5.99527 11.261 6.04603 11.5483 5.97994L11.5158 5.94744ZM23.5191 21.7424L18.8933 17.1166L4.01913 2.24245C3.91842 2.14091 3.7986 2.06031 3.66659 2.00531C3.53457 1.95031 3.39298 1.922 3.24996 1.922C3.10695 1.922 2.96535 1.95031 2.83334 2.00531C2.70132 2.06031 2.58151 2.14091 2.4808 2.24245C2.27903 2.44542 2.16577 2.71999 2.16577 3.0062C2.16577 3.2924 2.27903 3.56697 2.4808 3.76995L5.9583 7.24744C4.76313 8.91554 4.19862 10.9536 4.36526 12.9989C4.5319 15.0442 5.41887 16.964 6.8683 18.4166L12.2308 23.7791C12.3315 23.8806 12.4513 23.9612 12.5833 24.0162C12.7154 24.0712 12.8569 24.0996 13 24.0996C13.143 24.0996 13.2846 24.0712 13.4166 24.0162C13.5486 23.9612 13.6684 23.8806 13.7691 23.7791L18.1025 19.4458L21.9591 23.3024C22.1617 23.5064 22.437 23.6216 22.7245 23.6226C23.0119 23.6236 23.288 23.5104 23.492 23.3079C23.696 23.1053 23.8112 22.83 23.8122 22.5425C23.8132 22.255 23.7 21.9789 23.4975 21.7749L23.5191 21.7424ZM13.13 14.4191C12.8258 14.4386 12.5209 14.3936 12.2353 14.2872C11.9497 14.1808 11.6898 14.0153 11.4725 13.8016C11.2548 13.5862 11.0854 13.3271 10.9752 13.0414C10.865 12.7557 10.8167 12.4499 10.8333 12.1441L13.13 14.4191ZM13 21.4608L8.40663 16.8674C7.36704 15.8235 6.71294 14.4574 6.55154 12.9929C6.39014 11.5285 6.73102 10.0527 7.5183 8.80745L9.1108 10.3999C8.72232 11.206 8.5929 12.1126 8.74032 12.9952C8.88774 13.8777 9.30477 14.693 9.93413 15.3291C10.336 15.7334 10.8136 16.0543 11.3397 16.2737C11.8658 16.4931 12.43 16.6065 13 16.6074C13.6504 16.6045 14.2915 16.4526 14.8741 16.1633L16.5858 17.8749L13 21.4608Z" fill="black"/>
</svg>
